<svg aria-hidden="true" style="position: absolute; width: 0; height: 0; overflow: hidden;" version="1.1" xmlns="http://www.w3.org/2000/svg" xmlns:xlink="http://www.w3.org/1999/xlink">
  <defs>
    <symbol id="icon-arrow" viewBox="0 0 20 20">
      <path d="M16.172 9l-6.071-6.071 1.414-1.414 8.485 8.485-8.485 8.485-1.414-1.414 6.071-6.071h-16.172v-2z"></path>
    </symbol>
    <symbol id="icon-instagram" viewBox="0 0 32 32">
      <path d="M31.904 9.403c-0.078-1.703-0.348-2.866-0.744-3.884-0.402-1.068-1.031-2.035-1.845-2.834-0.799-0.814-1.766-1.444-2.834-1.846-1.018-0.395-2.181-0.666-3.884-0.743-1.706-0.078-2.251-0.097-6.597-0.097s-4.89 0.019-6.597 0.096c-1.703 0.078-2.866 0.348-3.884 0.744-1.068 0.402-2.035 1.032-2.834 1.845-0.814 0.799-1.444 1.766-1.846 2.834-0.395 1.018-0.666 2.181-0.743 3.884-0.078 1.707-0.097 2.251-0.097 6.597s0.019 4.891 0.097 6.597c0.078 1.703 0.348 2.866 0.744 3.884 0.402 1.067 1.032 2.035 1.845 2.834 0.799 0.814 1.766 1.444 2.834 1.845 1.018 0.396 2.181 0.666 3.884 0.744 1.707 0.078 2.251 0.096 6.597 0.096s4.89-0.018 6.597-0.096c1.703-0.078 2.866-0.348 3.884-0.744 2.149-0.831 3.848-2.53 4.679-4.679 0.396-1.018 0.666-2.181 0.744-3.884 0.078-1.707 0.096-2.251 0.096-6.597s-0.019-4.89-0.096-6.597zM29.024 22.466c-0.071 1.56-0.332 2.407-0.551 2.971-0.538 1.395-1.641 2.498-3.037 3.037-0.564 0.219-1.411 0.48-2.971 0.551-1.687 0.077-2.193 0.093-6.465 0.093s-4.779-0.016-6.466-0.093c-1.56-0.071-2.407-0.332-2.971-0.551-0.695-0.257-1.324-0.666-1.84-1.197-0.532-0.516-0.94-1.145-1.197-1.84-0.219-0.564-0.48-1.411-0.551-2.971-0.077-1.687-0.093-2.193-0.093-6.465s0.016-4.778 0.093-6.466c0.071-1.56 0.332-2.407 0.551-2.971 0.257-0.695 0.666-1.324 1.197-1.84 0.516-0.532 1.145-0.94 1.84-1.197 0.564-0.219 1.411-0.48 2.971-0.551 1.687-0.077 2.193-0.093 6.465-0.093h-0c4.272 0 4.778 0.016 6.466 0.094 1.56 0.071 2.407 0.332 2.971 0.551 0.695 0.257 1.323 0.666 1.84 1.197 0.531 0.516 0.94 1.145 1.197 1.84 0.219 0.564 0.48 1.411 0.551 2.971 0.077 1.687 0.093 2.193 0.093 6.465s-0.016 4.778-0.093 6.466z"></path>
      <path d="M16 7.784c-4.538 0-8.216 3.679-8.216 8.216s3.678 8.216 8.216 8.216c4.538 0 8.216-3.678 8.216-8.216s-3.678-8.216-8.216-8.216zM16 21.333c-2.945-0-5.333-2.388-5.333-5.333s2.388-5.333 5.333-5.333c2.946 0 5.333 2.388 5.333 5.333s-2.388 5.333-5.333 5.333z"></path>
      <path d="M26.461 7.459c0 1.060-0.86 1.92-1.92 1.92s-1.92-0.86-1.92-1.92c0-1.061 0.86-1.92 1.92-1.92s1.92 0.86 1.92 1.92z"></path>
    </symbol>
    <symbol id="icon-linkedin" viewBox="0 0 32 32">
      <path d="M29.105 0h-26.211c-1.599 0-2.895 1.296-2.895 2.895v26.211c0 1.599 1.296 2.895 2.895 2.895h26.211c1.599 0 2.895-1.296 2.895-2.895v-26.211c0-1.599-1.296-2.895-2.895-2.895zM9.902 27.631c0 0.465-0.377 0.842-0.842 0.842h-3.586c-0.465 0-0.842-0.377-0.842-0.842v-15.032c0-0.465 0.377-0.842 0.842-0.842h3.586c0.465 0 0.842 0.377 0.842 0.842v15.032zM7.267 10.34c-1.881 0-3.407-1.525-3.407-3.407s1.525-3.407 3.407-3.407c1.881 0 3.407 1.525 3.407 3.407s-1.525 3.407-3.407 3.407zM28.642 27.699c0 0.428-0.347 0.775-0.775 0.775h-3.848c-0.428 0-0.775-0.347-0.775-0.775v-7.051c0-1.052 0.309-4.609-2.749-4.609-2.371 0-2.852 2.435-2.949 3.528v8.132c0 0.428-0.347 0.775-0.775 0.775h-3.721c-0.428 0-0.775-0.347-0.775-0.775v-15.167c0-0.428 0.347-0.775 0.775-0.775h3.721c0.428 0 0.775 0.347 0.775 0.775v1.311c0.879-1.32 2.186-2.338 4.969-2.338 6.161 0 6.126 5.756 6.126 8.919v7.275z"></path>
    </symbol>
    <symbol id="icon-x" viewBox="0 0 38 32">
      <path d="M11.893 32c14.272 0 22.076-12.31 22.076-22.985 0-0.35-0.007-0.698-0.022-1.044 1.515-1.14 2.832-2.563 3.87-4.183-1.39 0.643-2.886 1.076-4.456 1.272 1.602-1 2.832-2.582 3.412-4.468-1.499 0.925-3.159 1.598-4.927 1.961-1.416-1.57-3.432-2.552-5.664-2.552-4.285 0-7.76 3.618-7.76 8.077 0 0.634 0.068 1.251 0.201 1.842-6.449-0.338-12.167-3.552-15.993-8.44-0.666 1.194-1.051 2.581-1.051 4.061 0 2.802 1.37 5.277 3.453 6.724-1.273-0.041-2.469-0.405-3.514-1.010-0.001 0.034-0.001 0.067-0.001 0.103 0 3.912 2.674 7.179 6.225 7.919-0.652 0.185-1.338 0.284-2.046 0.284-0.499 0-0.986-0.051-1.459-0.146 0.988 3.21 3.852 5.545 7.248 5.611-2.656 2.167-6.001 3.458-9.637 3.458-0.626 0-1.244-0.037-1.851-0.112 3.434 2.291 7.512 3.629 11.894 3.629z"></path>
    </symbol>
    <symbol id="icon-call" viewBox="0 0 32 32">
      <path d="M8.72 6.667c0.080 1.187 0.28 2.347 0.6 3.453l-1.6 1.6c-0.547-1.6-0.893-3.293-1.013-5.053h2.013zM21.867 22.693c1.133 0.32 2.293 0.52 3.467 0.6v1.987c-1.76-0.12-3.453-0.467-5.067-1l1.6-1.587zM10 4h-4.667c-0.733 0-1.333 0.6-1.333 1.333 0 12.52 10.147 22.667 22.667 22.667 0.733 0 1.333-0.6 1.333-1.333v-4.653c0-0.733-0.6-1.333-1.333-1.333-1.653 0-3.267-0.267-4.76-0.76-0.133-0.053-0.28-0.067-0.413-0.067-0.347 0-0.68 0.133-0.947 0.387l-2.933 2.933c-3.773-1.933-6.867-5.013-8.787-8.787l2.933-2.933c0.373-0.373 0.48-0.893 0.333-1.36-0.493-1.493-0.76-3.093-0.76-4.76 0-0.733-0.6-1.333-1.333-1.333z"></path>
    </symbol>
    <symbol id="icon-email" viewBox="0 0 32 32">
      <path d="M29.333 8c0-1.467-1.2-2.667-2.667-2.667h-21.333c-1.467 0-2.667 1.2-2.667 2.667v16c0 1.467 1.2 2.667 2.667 2.667h21.333c1.467 0 2.667-1.2 2.667-2.667v-16zM26.667 8l-10.667 6.667-10.667-6.667h21.333zM26.667 24h-21.333v-13.333l10.667 6.667 10.667-6.667v13.333z"></path>
    </symbol>
    <symbol id="icon-location" viewBox="0 0 32 32">
      <path d="M10 20s-7-9.13-7-13c0-3.866 3.134-7 7-7s7 3.134 7 7v0c0 3.87-7 13-7 13zM10 9c1.105 0 2-0.895 2-2s-0.895-2-2-2v0c-1.105 0-2 0.895-2 2s0.895 2 2 2v0z"></path>
    </symbol>
  </defs>
</svg>
